<svg version="1.1" viewBox="0.0 0.0 960.0 540.0" fill="none" stroke="none" stroke-linecap="square" stroke-miterlimit="10" xmlns:xlink="http://www.w3.org/1999/xlink" xmlns="http://www.w3.org/2000/svg"><clipPath id="g3f5a6e8fd56_0_0.0"><path d="m0 0l960.0 0l0 540.0l-960.0 0l0 -540.0z" clip-rule="nonzero"/></clipPath><g clip-path="url(#g3f5a6e8fd56_0_0.0)"><path fill="#ffffff" d="m0 0l960.0 0l0 540.0l-960.0 0z" fill-rule="evenodd"/><path fill="#000000" fill-opacity="0.0" d="m40.14173 59.422573l879.71655 0l0 122.64566l-879.71655 0z" fill-rule="evenodd"/><path fill="#595959" d="m387.0003 147.80632l0 7.65625l-42.890625 0q-0.09375 -2.875 0.921875 -5.53125q1.640625 -4.390625 5.25 -8.640625q3.609375 -4.25 10.421875 -9.8125q10.578125 -8.687508 14.296875 -13.750008q3.71875 -5.078125 3.71875 -9.578125q0 -4.75 -3.390625 -8.0q-3.375 -3.25 -8.828125 -3.25q-5.75 0 -9.203125 3.453125q-3.453125 3.453125 -3.5 9.5625l-8.1875 -0.84375q0.84375 -9.15625 6.328125 -13.953125q5.484375 -4.8125 14.734375 -4.8125q9.34375 0 14.78125 5.1875q5.453125 5.171875 5.453125 12.828125q0 3.890625 -1.59375 7.65625q-1.59375 3.765625 -5.296875 7.921875q-3.6875 4.1562576 -12.28125 11.421883q-7.15625 6.015625 -9.203125 8.171875q-2.03125 2.140625 -3.359375 4.3125l31.828125 0zm13.012451 7.65625l0 -9.078125l9.078125 0l0 9.078125l-9.078125 0zm46.249695 0l0 -15.53125l-28.140625 0l0 -7.3125l29.609375 -42.046883l6.5 0l0 42.046883l8.765625 0l0 7.3125l-8.765625 0l0 15.53125l-7.96875 0zm0 -22.84375l0 -29.250008l-20.3125 29.250008l20.3125 0zm24.887451 5.84375l8.359375 -0.703125q0.9375 6.109375 4.3125 9.1875q3.390625 3.078125 8.171875 3.078125q5.75 0 9.734375 -4.34375q3.984375 -4.34375 3.984375 -11.515625q0 -6.8125076 -3.828125 -10.750008q-3.828125 -3.9375 -10.015625 -3.9375q-3.859375 0 -6.953125 1.75q-3.09375 1.75 -4.875 4.53125l-7.484375 -0.96875l6.296875 -33.34375l32.265625 0l0 7.625l-25.890625 0l-3.5 17.4375q5.84375 -4.078125 12.265625 -4.078125q8.5 0 14.328125 5.890625q5.84375 5.890625 5.84375 15.140633q0 8.8125 -5.125 15.234375q-6.25 7.875 -17.046875 7.875q-8.84375 0 -14.453125 -4.953125q-5.59375 -4.96875 -6.390625 -13.15625zm80.434326 17.0l-7.96875 0l0 -50.765633q-2.890625 2.734375 -7.5625 5.484375q-4.65625 2.734375 -8.375 4.109375l0 -7.703125q6.6875 -3.140625 11.6875 -7.609375q5.0 -4.46875 7.078125 -8.671875l5.140625 0l0 65.15626zm20.403015 -32.000008q0 -11.515625 2.359375 -18.53125q2.375 -7.015625 7.046875 -10.8125q4.671875 -3.8125 11.75 -3.8125q5.21875 0 9.15625 2.109375q3.953125 2.09375 6.515625 6.0625q2.5625 3.953125 4.015625 9.640625q1.46875 5.6875 1.46875 15.34375q0 11.421883 -2.34375 18.437508q-2.34375 7.015625 -7.015625 10.84375q-4.671875 3.828125 -11.796875 3.828125q-9.390625 0 -14.734375 -6.734375q-6.421875 -8.09375 -6.421875 -26.375008zm8.1875 0q0 15.968758 3.734375 21.265633q3.75 5.296875 9.234375 5.296875q5.484375 0 9.21875 -5.3125q3.75 -5.3125 3.75 -21.250008q0 -16.03125 -3.75 -21.296875q-3.734375 -5.265625 -9.3125 -5.265625q-5.484375 0 -8.765625 4.640625q-4.109375 5.9375 -4.109375 21.921875z" fill-rule="nonzero"/><path fill="#000000" fill-opacity="0.0" d="m40.14173 332.4672l879.71655 0l0 122.64566l-879.71655 0z" fill-rule="evenodd"/><path fill="#595959" d="m399.5939 420.85092l0 7.65625l-42.890625 0q-0.09375 -2.875 0.921875 -5.53125q1.640625 -4.390625 5.25 -8.640625q3.609375 -4.25 10.421875 -9.8125q10.578125 -8.6875 14.296875 -13.75q3.71875 -5.078125 3.71875 -9.578125q0 -4.75 -3.390625 -8.0q-3.375 -3.25 -8.828125 -3.25q-5.75 0 -9.203125 3.453125q-3.453125 3.453125 -3.5 9.5625l-8.1875 -0.84375q0.84375 -9.15625 6.328125 -13.953125q5.484375 -4.8125 14.734375 -4.8125q9.34375 0 14.78125 5.1875q5.453125 5.171875 5.453125 12.828125q0 3.890625 -1.59375 7.65625q-1.59375 3.765625 -5.296875 7.921875q-3.6875 4.15625 -12.28125 11.421875q-7.15625 6.015625 -9.203125 8.171875q-2.03125 2.140625 -3.359375 4.3125l31.828125 0zm34.07492 7.65625l0 -15.53125l-28.140625 0l0 -7.3125l29.609375 -42.046875l6.5 0l0 42.046875l8.765625 0l0 7.3125l-8.765625 0l0 15.53125l-7.96875 0zm0 -22.84375l0 -29.25l-20.3125 29.25l20.3125 0zm24.887451 5.84375l8.359375 -0.703125q0.9375 6.109375 4.3125 9.1875q3.390625 3.078125 8.171875 3.078125q5.75 0 9.734375 -4.34375q3.984375 -4.34375 3.984375 -11.515625q0 -6.8125 -3.828125 -10.75q-3.828125 -3.9375 -10.015625 -3.9375q-3.859375 0 -6.953125 1.75q-3.09375 1.75 -4.875 4.53125l-7.484375 -0.96875l6.296875 -33.34375l32.265625 0l0 7.625l-25.890625 0l-3.5 17.4375q5.84375 -4.078125 12.265625 -4.078125q8.5 0 14.328125 5.890625q5.84375 5.890625 5.84375 15.140625q0 8.8125 -5.125 15.234375q-6.25 7.875 -17.046875 7.875q-8.84375 0 -14.453125 -4.953125q-5.59375 -4.96875 -6.390625 -13.15625zm80.434326 17.0l-7.96875 0l0 -50.765625q-2.890625 2.734375 -7.5625 5.484375q-4.65625 2.734375 -8.375 4.109375l0 -7.703125q6.6875 -3.140625 11.6875 -7.609375q5.0 -4.46875 7.078125 -8.671875l5.140625 0l0 65.15625zm20.403076 -32.0q0 -11.515625 2.359375 -18.53125q2.375 -7.015625 7.046875 -10.8125q4.671875 -3.8125 11.75 -3.8125q5.21875 0 9.15625 2.109375q3.953125 2.09375 6.515625 6.0625q2.5625 3.953125 4.015625 9.640625q1.46875 5.6875 1.46875 15.34375q0 11.421875 -2.34375 18.4375q-2.34375 7.015625 -7.015625 10.84375q-4.671875 3.828125 -11.796875 3.828125q-9.390625 0 -14.734375 -6.734375q-6.421875 -8.09375 -6.421875 -26.375zm8.1875 0q0 15.96875 3.734375 21.265625q3.75 5.296875 9.234375 5.296875q5.484375 0 9.21875 -5.3125q3.75 -5.3125 3.75 -21.25q0 -16.03125 -3.75 -21.296875q-3.734375 -5.265625 -9.3125 -5.265625q-5.484375 0 -8.765625 4.640625q-4.109375 5.9375 -4.109375 21.921875z" fill-rule="nonzero"/><path fill="#b6d7a8" d="m409.65628 172.06563l18.790497 16.77977c6.2153625 5.5502777 15.751343 5.0093536 21.299194 -1.2081909l7.1752014 -8.041336l3.2154236 2.871338l-0.6906738 -12.175751l-12.17099 0.69039917l3.2154236 2.871338l-7.1752014 8.041336c-2.377655 2.6646576 -6.464508 2.8964844 -9.128235 0.51779175l-18.790497 -16.77977z" fill-rule="evenodd"/><path stroke="#595959" stroke-width="1.0" stroke-linejoin="round" stroke-linecap="butt" d="m409.65628 172.06563l18.790497 16.77977c6.2153625 5.5502777 15.751343 5.0093536 21.299194 -1.2081909l7.1752014 -8.041336l3.2154236 2.871338l-0.6906738 -12.175751l-12.17099 0.69039917l3.2154236 2.871338l-7.1752014 8.041336c-2.377655 2.6646576 -6.464508 2.8964844 -9.128235 0.51779175l-18.790497 -16.77977z" fill-rule="evenodd"/><path fill="#000000" d="m440.3491 314.5643l14.251953 0l0 -94.14172l28.503937 0l0 94.14172l14.251984 0l-28.503937 28.503937z" fill-rule="evenodd"/><path stroke="#595959" stroke-width="1.0" stroke-linejoin="round" stroke-linecap="butt" d="m440.3491 314.5643l14.251953 0l0 -94.14172l28.503937 0l0 94.14172l14.251984 0l-28.503937 28.503937z" fill-rule="evenodd"/><path fill="#b6d7a8" d="m465.87674 172.06563l18.790497 16.77977c6.215393 5.5502777 15.751373 5.0093536 21.299225 -1.2081909l7.1752014 -8.041336l3.215393 2.871338l-0.6906738 -12.175751l-12.170959 0.69039917l3.215393 2.871338l-7.1752014 8.041336c-2.3776245 2.6646576 -6.4644775 2.8964844 -9.128235 0.51779175l-18.790466 -16.77977z" fill-rule="evenodd"/><path stroke="#595959" stroke-width="1.0" stroke-linejoin="round" stroke-linecap="butt" d="m465.87674 172.06563l18.790497 16.77977c6.215393 5.5502777 15.751373 5.0093536 21.299225 -1.2081909l7.1752014 -8.041336l3.215393 2.871338l-0.6906738 -12.175751l-12.170959 0.69039917l3.215393 2.871338l-7.1752014 8.041336c-2.3776245 2.6646576 -6.4644775 2.8964844 -9.128235 0.51779175l-18.790466 -16.77977z" fill-rule="evenodd"/><path fill="#b6d7a8" d="m522.0972 172.06563l18.790466 16.77977c6.215393 5.5502777 15.751404 5.0093536 21.299255 -1.2081909l7.175171 -8.041336l3.215393 2.871338l-0.6906738 -12.175751l-12.170959 0.69039917l3.215393 2.871338l-7.175171 8.041336c-2.3776245 2.6646576 -6.4644775 2.8964844 -9.128235 0.51779175l-18.790466 -16.77977z" fill-rule="evenodd"/><path stroke="#595959" stroke-width="1.0" stroke-linejoin="round" stroke-linecap="butt" d="m522.0972 172.06563l18.790466 16.77977c6.215393 5.5502777 15.751404 5.0093536 21.299255 -1.2081909l7.175171 -8.041336l3.215393 2.871338l-0.6906738 -12.175751l-12.170959 0.69039917l3.215393 2.871338l-7.175171 8.041336c-2.3776245 2.6646576 -6.4644775 2.8964844 -9.128235 0.51779175l-18.790466 -16.77977z" fill-rule="evenodd"/><path fill="#b6d7a8" d="m578.3177 172.06563l18.790466 16.77977c6.215393 5.5502777 15.751404 5.0093536 21.299255 -1.2081909l7.175171 -8.041336l3.215393 2.871338l-0.6906128 -12.175751l-12.1710205 0.69039917l3.215454 2.871338l-7.175232 8.041336c-2.3776245 2.6646576 -6.4644775 2.8964844 -9.128235 0.51779175l-18.790466 -16.77977z" fill-rule="evenodd"/><path stroke="#595959" stroke-width="1.0" stroke-linejoin="round" stroke-linecap="butt" d="m578.3177 172.06563l18.790466 16.77977c6.215393 5.5502777 15.751404 5.0093536 21.299255 -1.2081909l7.175171 -8.041336l3.215393 2.871338l-0.6906128 -12.175751l-12.1710205 0.69039917l3.215454 2.871338l-7.175232 8.041336c-2.3776245 2.6646576 -6.4644775 2.8964844 -9.128235 0.51779175l-18.790466 -16.77977z" fill-rule="evenodd"/><path fill="#ffffff" d="m589.05774 10.018373l7.2440796 0l0 147.1811l-7.2440796 0z" fill-rule="evenodd"/><path stroke="#ffffff" stroke-width="1.0" stroke-linejoin="round" stroke-linecap="butt" d="m589.05774 10.018373l7.2440796 0l0 147.1811l-7.2440796 0z" fill-rule="evenodd"/><path fill="#ffffff" d="m558.1862 92.4687l5.13385 -5.1338654l77.22839 77.228355l-5.13385 5.13385z" fill-rule="evenodd"/><path stroke="#ffffff" stroke-width="1.0" stroke-linejoin="round" stroke-linecap="butt" d="m558.1862 92.4687l5.13385 -5.1338654l77.22839 77.228355l-5.13385 5.13385z" fill-rule="evenodd"/><path fill="#ffffff" d="m667.9345 45.01137l5.13385 5.1338577l-104.06299 104.06299l-5.13385 -5.13385z" fill-rule="evenodd"/><path stroke="#ffffff" stroke-width="1.0" stroke-linejoin="round" stroke-linecap="butt" d="m667.9345 45.01137l5.13385 5.1338577l-104.06299 104.06299l-5.13385 -5.13385z" fill-rule="evenodd"/><path fill="#ffffff" d="m668.76904 120.84252l0 6.1417313l-100.59845 0l0 -6.1417313z" fill-rule="evenodd"/><path stroke="#ffffff" stroke-width="1.0" stroke-linejoin="round" stroke-linecap="butt" d="m668.76904 120.84252l0 6.1417313l-100.59845 0l0 -6.1417313z" fill-rule="evenodd"/></g></svg>